{"asset":{"generator":"glTF-Transform v4.2.1","version":"2.0"},"accessors":[{"type":"VEC3","componentType":5126,"count":429908,"max":[0.926662027835846,0.9787906408309937,0.924750030040741],"min":[-0.926590621471405,0,-0.9272783994674683],"bufferView":0,"byteOffset":0},{"type":"VEC3","componentType":5126,"count":429908,"bufferView":0,"byteOffset":12},{"type":"VEC2","componentType":5126,"count":429908,"bufferView":0,"byteOffset":24},{"type":"VEC4","componentType":5126,"count":429908,"bufferView":0,"byteOffset":32},{"type":"SCALAR","componentType":5125,"count":1498854,"bufferView":1,"byteOffset":0}],"bufferViews":[{"buffer":0,"byteOffset":0,"byteLength":20635584,"byteStride":48,"target":34962},{"buffer":0,"byteOffset":20635584,"byteLength":5995416,"target":34963}],"samplers":[{"magFilter":9729,"minFilter":9987,"wrapS":10497,"wrapT":10497}],"textures":[{"source":1,"sampler":0},{"source":0,"sampler":0},{"source":2,"sampler":0}],"images":[{"name":"texture_normal","mimeType":"image/png","uri":"normal_1.png"},{"name":"texture_diffuse","mimeType":"image/png","uri":"baseColor_1.png"},{"name":"texture_metallic-texture_roughness","mimeType":"image/png","uri":"metallicRoughness_1.png"}],"buffers":[{"uri":"base_basic_pbr.bin","byteLength":26631000}],"materials":[{"name":"model","doubleSided":true,"pbrMetallicRoughness":{"baseColorTexture":{"index":0},"metallicRoughnessTexture":{"index":2}},"normalTexture":{"index":1}}],"meshes":[{"name":"model","primitives":[{"attributes":{"POSITION":0,"NORMAL":1,"TEXCOORD_0":2,"TANGENT":3},"mode":4,"material":0,"indices":4}]}],"nodes":[{"name":"model","mesh":0}],"scenes":[{"name":"Scene","nodes":[0]}],"scene":0}