{"asset":{"generator":"glTF-Transform v4.2.1","version":"2.0"},"accessors":[{"type":"SCALAR","componentType":5123,"count":167127,"bufferView":0,"byteOffset":0},{"type":"VEC3","componentType":5126,"count":32283,"max":[51,51,4],"min":[-51,-51,-25.600000381469727],"bufferView":1,"byteOffset":0},{"type":"VEC3","componentType":5126,"count":32283,"bufferView":1,"byteOffset":12}],"bufferViews":[{"buffer":0,"byteOffset":0,"byteLength":334256,"target":34963},{"buffer":0,"byteOffset":334256,"byteLength":774792,"byteStride":24,"target":34962}],"buffers":[{"uri":"waike.bin","byteLength":1109048}],"materials":[{"name":"face1730","doubleSided":true,"pbrMetallicRoughness":{"baseColorFactor":[0.20000000298023224,0.20000000298023224,0.20000000298023224,1],"roughnessFactor":0.6324555277824402,"metallicFactor":0.8255720138549805}}],"meshes":[{"primitives":[{"attributes":{"NORMAL":2,"POSITION":1},"mode":4,"material":0,"indices":0}]}],"nodes":[{"name":"倒角1","mesh":0},{"children":[0]},{"name":"外壳","scale":[0.0010000000474974513,0.0010000000474974513,0.0010000000474974513],"children":[1]}],"scenes":[{"nodes":[2]}],"scene":0}